M48
METRIC,LZ,000.000
;FILE_FORMAT=3:3
;TYPE=PLATED
;Layer: PTH_Through
;EasyEDA v6.4.31, 2022-02-09 14:31:59
;ad555750bb3e4896a058101514d61d8c,ad51392aa1584b92a576f04d086679f3,10
;Gerber Generator version 0.2
;Holesize 1 = 0.800 mm
T01C0.800
;Holesize 2 = 0.901 mm
T02C0.901
;Holesize 3 = 0.915 mm
T03C0.915
;Holesize 4 = 0.966 mm
T04C0.966
;Holesize 5 = 1.000 mm
T05C1.000
;Holesize 6 = 1.200 mm
T06C1.200
;Holesize 7 = 1.301 mm
T07C1.301
;Holesize 8 = 1.800 mm
T08C1.800
%
G05
G90
T01
X061976Y018248
X061976Y013248
X061849Y026583
X061849Y031583
X018534Y-016849G85X017534Y-016849
X018534Y-005249G85X017534Y-005249
X029837Y-016976G85X028837Y-016976
X029837Y-005376G85X028837Y-005376
X042664Y-016849G85X041664Y-016849
X042664Y-005249G85X041664Y-005249
X054602Y-017103G85X053602Y-017103
X054602Y-005503G85X053602Y-005503
T02
X099060Y020955
X101600Y020955
X104140Y020955
X106680Y020955
X099060Y028575
X101600Y028575
X104140Y028575
X106680Y028575
T03
X010668Y000932
X010668Y-009568
X023114Y000678
X023114Y-009822
X035941Y000678
X035941Y-009822
X048260Y-000211
X048260Y-010711
X061595Y035771
X061595Y046271
X110998Y013124
X110998Y002624
X093175Y002921
X103675Y002921
X106299Y-011727
X106299Y-001227
X110998Y-000973
X110998Y-011473
X063754Y-010457
X063754Y000043
X069723Y000170
X069723Y-010330
X077935Y003810
X088435Y003810
X081153Y-010584
X081153Y-000084
X100584Y-001227
X100584Y-011727
X096012Y-011727
X096012Y-001227
X090678Y-001354
X090678Y-011854
X075565Y-010330
X075565Y000170
X062949Y003937
X073449Y003937
X093302Y007747
X103802Y007747
T04
X055245Y-000381
X055245Y002159
X041910Y-000127
X041910Y002413
X029337Y-000254
X029337Y002286
X016764Y-000127
X016764Y002413
X071501Y046228
X068961Y046228
T05
X025368Y018161
X034068Y018161
X025241Y025781
X033941Y025781
X024860Y034925
X033560Y034925
X024987Y044831
X033687Y044831
X090551Y033020
X090551Y025908
X090678Y039116
X090678Y046228
X081026Y035052
X081026Y032512
X079502Y046990
X079502Y044450
T06
X071623Y016764
X071633Y019304
X071623Y014224
X048133Y013776
X048133Y021276
X047879Y035747
X047879Y043247
X071369Y033020
X071379Y035560
X071369Y030480
T07
X018034Y-014049
X018034Y-011049
X018034Y-008049
X029337Y-014176
X029337Y-011176
X029337Y-008176
X042164Y-014049
X042164Y-011049
X042164Y-008049
X054102Y-014303
X054102Y-011303
X054102Y-008303
X106934Y041112
X106934Y036104
T08
X017272Y041783
X017272Y036703
X017272Y031623
M30
