G04 Layer: TopLayer*
G04 EasyEDA v6.4.31, 2022-02-09 14:31:59*
G04 ad555750bb3e4896a058101514d61d8c,ad51392aa1584b92a576f04d086679f3,10*
G04 Gerber Generator version 0.2*
G04 Scale: 100 percent, Rotated: No, Reflected: No *
G04 Dimensions in millimeters *
G04 leading zeros omitted , absolute positions ,4 integer and 5 decimal *
%FSLAX45Y45*%
%MOMM*%

%ADD11C,0.7000*%
%ADD12C,2.0000*%
%ADD13C,1.6510*%
%ADD14C,2.5000*%
%ADD15C,1.8000*%
%ADD16C,1.6000*%
%ADD17C,3.0000*%
%ADD18C,1.5000*%

%LPD*%
D11*
X10414000Y2095500D02*
G01*
X10414000Y1447800D01*
X10541000Y1320800D01*
X11091392Y1320800D01*
X11099800Y1312392D01*
X9317481Y292100D02*
G01*
X9034272Y292100D01*
X8399272Y-342900D01*
X2265425Y-342900D01*
X1803400Y-804926D01*
X2489200Y3175000D02*
G01*
X2781300Y3175000D01*
X3394202Y2578100D01*
X1727200Y3162300D02*
G01*
X2453259Y3162300D01*
X2485999Y3195043D01*
X5524502Y215900D02*
G01*
X4216402Y215900D01*
X4191002Y241300D01*
X2298702Y254888D02*
G01*
X2907413Y254888D01*
X2933702Y228600D01*
X4813302Y1377594D02*
G01*
X6144795Y1377594D01*
X6197602Y1324787D01*
X6184902Y2658287D02*
G01*
X6828614Y3302000D01*
X7136919Y3302000D01*
X4216402Y-804900D02*
G01*
X4203016Y-791514D01*
X2959788Y-791514D01*
X2933702Y-817600D01*
X5410202Y-830300D02*
G01*
X4241802Y-830300D01*
X4216402Y-804900D01*
X10693402Y3610355D02*
G01*
X9369046Y3610355D01*
X9067802Y3911600D01*
X7136919Y3302000D02*
G01*
X7397777Y3302000D01*
X7600977Y3505200D01*
X8102602Y3505200D01*
X6197602Y1824786D02*
G01*
X5116095Y1824786D01*
X4813302Y2127580D01*
X6159502Y3577081D02*
G01*
X4790290Y3577081D01*
X4787902Y3574694D01*
X4787902Y3574694D02*
G01*
X3438197Y3574694D01*
X3356002Y3492500D01*
X6896102Y4622800D02*
G01*
X6163795Y4622800D01*
X6159502Y4627092D01*
X10058402Y-122707D02*
G01*
X10629902Y-122707D01*
X9067800Y-1185418D02*
G01*
X8242302Y-1185418D01*
X8115300Y-1058415D01*
X9601202Y-1172718D02*
G01*
X8895946Y-1877974D01*
X4689477Y-1877974D01*
X4216402Y-1404899D01*
X1727200Y4178300D02*
G01*
X2193899Y4178300D01*
X2498699Y4483100D01*
X8115302Y-8407D02*
G01*
X8504709Y381000D01*
X8843520Y381000D01*
X5524502Y-38100D02*
G01*
X4842995Y-38100D01*
X4826002Y-21107D01*
X4191002Y-12700D02*
G01*
X3674595Y-12700D01*
X3594102Y67792D01*
X1676402Y-12700D02*
G01*
X1172695Y-12700D01*
X1066802Y93192D01*
X6972302Y16992D02*
G01*
X6388102Y16992D01*
X6375402Y4292D01*
X9067800Y-135407D02*
G01*
X9588502Y-135407D01*
X9601200Y-122709D01*
X7344920Y393700D02*
G01*
X7780809Y393700D01*
X7793509Y381000D01*
X2933702Y-25400D02*
G01*
X2404595Y-25400D01*
X2311402Y67792D01*
X1803402Y-804900D02*
G01*
X1218719Y-804900D01*
X1066802Y-956818D01*
X2486002Y3195040D02*
G01*
X2486002Y3492500D01*
X7950202Y4699000D02*
G01*
X8991602Y4699000D01*
X9067802Y4622800D01*
X2933702Y-1117600D02*
G01*
X2875511Y-1175791D01*
X1874293Y-1175791D01*
X1803402Y-1104900D01*
X4216402Y-1104900D02*
G01*
X4153181Y-1168120D01*
X2984223Y-1168120D01*
X2933702Y-1117600D01*
X5410202Y-1130300D02*
G01*
X5279417Y-1261084D01*
X4372587Y-1261084D01*
X4216402Y-1104900D01*
X7137908Y3556025D02*
G01*
X7137908Y3835907D01*
X7454900Y4152900D01*
X7454900Y4495800D01*
X7645400Y4686300D01*
X7937500Y4686300D01*
X7950200Y4699000D01*
X6184900Y3158236D02*
G01*
X5880100Y2853436D01*
X5880100Y2578100D01*
X6781800Y1676400D01*
X7162291Y1676400D01*
X1727200Y3670300D02*
G01*
X1841779Y3784879D01*
X4248099Y3784879D01*
X4787900Y4324677D01*
X1676402Y241300D02*
G01*
X1689991Y254888D01*
X2298702Y254888D01*
X9029700Y2590800D02*
G01*
X9953729Y2590800D01*
X10414002Y2130526D01*
X10414002Y2095500D01*
X4813302Y2127580D02*
G01*
X2974621Y2127580D01*
X2524102Y2578100D01*
X2298702Y254888D02*
G01*
X4177413Y254888D01*
X4191002Y241300D01*
D12*
G01*
X1066800Y93192D03*
G01*
X1066800Y-956818D03*
G01*
X2311400Y67792D03*
G01*
X2311400Y-982218D03*
G01*
X3594100Y67792D03*
G01*
X3594100Y-982218D03*
G01*
X4826000Y-21107D03*
G01*
X4826000Y-1071118D03*
D13*
G01*
X5524500Y-38100D03*
G01*
X5524500Y215900D03*
G01*
X4191000Y-12700D03*
G01*
X4191000Y241300D03*
G01*
X2933700Y-25400D03*
G01*
X2933700Y228600D03*
G01*
X1676400Y-12700D03*
G01*
X1676400Y241300D03*
D12*
G01*
X2536799Y1816100D03*
G01*
X3406800Y1816100D03*
G01*
X2524099Y2578100D03*
G01*
X3394100Y2578100D03*
G01*
X2485999Y3492500D03*
G01*
X3356000Y3492500D03*
G01*
X2498699Y4483100D03*
G01*
X3368700Y4483100D03*
G01*
X6197600Y1824786D03*
G01*
X6197600Y1324787D03*
D14*
G01*
X4813300Y1377594D03*
G01*
X4813300Y2127580D03*
D12*
G01*
X6159500Y3577081D03*
G01*
X6159500Y4627092D03*
G01*
X11099800Y1312392D03*
G01*
X11099800Y262381D03*
G01*
X9317507Y292100D03*
G01*
X10367518Y292100D03*
G01*
X10629900Y-1172718D03*
G01*
X10629900Y-122707D03*
G01*
X11099800Y-97307D03*
G01*
X11099800Y-1147318D03*
G01*
X6375400Y-1045718D03*
G01*
X6375400Y4292D03*
G01*
X6972300Y16992D03*
G01*
X6972300Y-1033018D03*
G01*
X7793507Y381000D03*
G01*
X8843518Y381000D03*
G01*
X8115300Y-1058418D03*
G01*
X8115300Y-8407D03*
G01*
X10058400Y-122707D03*
G01*
X10058400Y-1172718D03*
G01*
X9601200Y-1172718D03*
G01*
X9601200Y-122707D03*
G01*
X9067800Y-135407D03*
G01*
X9067800Y-1185418D03*
G01*
X7556500Y-1033018D03*
G01*
X7556500Y16992D03*
G01*
X6294907Y393700D03*
G01*
X7344918Y393700D03*
D15*
G01*
X7150100Y4622800D03*
G01*
X6896100Y4622800D03*
D12*
G01*
X9055100Y3302000D03*
G01*
X9055100Y2590800D03*
G01*
X9067800Y3911600D03*
G01*
X9067800Y4622800D03*
G01*
X8102600Y3505200D03*
G01*
X8102600Y3251200D03*
D16*
G01*
X7950200Y4699000D03*
D12*
G01*
X7950200Y4445000D03*
G01*
X6184900Y2658287D03*
G01*
X6184900Y3158286D03*
D14*
G01*
X4787900Y3574694D03*
G01*
X4787900Y4324680D03*
G01*
X1803400Y-1404899D03*
G01*
X1803400Y-1104900D03*
G01*
X1803400Y-804900D03*
G01*
X2933700Y-1417599D03*
G01*
X2933700Y-1117600D03*
G01*
X2933700Y-817600D03*
G01*
X4216400Y-1404899D03*
G01*
X4216400Y-1104900D03*
G01*
X4216400Y-804900D03*
G01*
X5410200Y-1430299D03*
G01*
X5410200Y-1130300D03*
G01*
X5410200Y-830300D03*
G01*
X10693400Y4111244D03*
G01*
X10693400Y3610355D03*
D12*
G01*
X9330207Y774700D03*
G01*
X10380218Y774700D03*
D17*
G01*
X1727200Y4178300D03*
G01*
X1727200Y3670300D03*
G01*
X1727200Y3162300D03*
D15*
X7122317Y1676374D02*
G01*
X7202317Y1676374D01*
X7123308Y1930400D02*
G01*
X7203307Y1930400D01*
X7122317Y1422374D02*
G01*
X7202317Y1422374D01*
X9906000Y2135499D02*
G01*
X9906000Y2055500D01*
X10160000Y2055500D02*
G01*
X10160000Y2135499D01*
X10414000Y2055500D02*
G01*
X10414000Y2135499D01*
X10668000Y2055500D02*
G01*
X10668000Y2135499D01*
X9906000Y2817500D02*
G01*
X9906000Y2897499D01*
X10160000Y2817500D02*
G01*
X10160000Y2897499D01*
X10414000Y2817500D02*
G01*
X10414000Y2897499D01*
X10668000Y2817500D02*
G01*
X10668000Y2897499D01*
D18*
X1853399Y-1684909D02*
G01*
X1753400Y-1684909D01*
X1853399Y-524890D02*
G01*
X1753400Y-524890D01*
X2983699Y-1697609D02*
G01*
X2883700Y-1697609D01*
X2983699Y-537590D02*
G01*
X2883700Y-537590D01*
X4266399Y-1684909D02*
G01*
X4166400Y-1684909D01*
X4266399Y-524890D02*
G01*
X4166400Y-524890D01*
X5460199Y-1710309D02*
G01*
X5360200Y-1710309D01*
X5460199Y-550290D02*
G01*
X5360200Y-550290D01*
D15*
X7096917Y3302000D02*
G01*
X7176917Y3302000D01*
X7097908Y3556025D02*
G01*
X7177907Y3556025D01*
X7096917Y3048000D02*
G01*
X7176917Y3048000D01*
M02*
